<svg width="1226px" height="376px" viewBox="0 0 1226 376" version="1.1" xmlns="http://www.w3.org/2000/svg" xmlns:xlink="http://www.w3.org/1999/xlink">
  <g id="Page-1" stroke="none" stroke-width="1" fill="none" fill-rule="evenodd">
    <g id="Landing-Page" transform="translate(-30.000000, -166.000000)" fill="#E6BB22">
      <g id="Big-Jumbo-Content" transform="translate(30.000000, 166.000000)">
        <g id="Aksen">
          <path d="M142.492851,148 L74.5071494,148 C72.5712029,148 71,149.569686 71,151.503763 L71,336.496237 C71,338.430314 72.5712029,340 74.5071494,340 L142.492851,340 C144.428797,340 146,338.430314 146,336.496237 L146,151.503763 C146,149.569686 144.428797,148 142.492851,148 L142.492851,148 Z M138.985701,332.992473 L78.0267686,332.992473 L78.0267686,302.165585 L94.5742788,302.165585 C96.5102253,302.165585 98.0814282,300.595899 98.0814282,298.661822 C98.0814282,296.727745 96.5102253,295.158059 94.5742788,295.158059 L78.0267686,295.158059 L78.0267686,281.143005 L94.5742788,281.143005 C96.5102253,281.143005 98.0814282,279.573319 98.0814282,277.639242 C98.0814282,275.705165 96.5102253,274.135479 94.5742788,274.135479 L78.0267686,274.135479 L78.0267686,260.120426 L94.5742788,260.120426 C96.5102253,260.120426 98.0814282,258.55074 98.0814282,256.616662 C98.0814282,254.682585 96.5102253,253.112899 94.5742788,253.112899 L78.0267686,253.112899 L78.0267686,239.097846 L94.5742788,239.097846 C96.5102253,239.097846 98.0814282,237.52816 98.0814282,235.594083 C98.0814282,233.660005 96.5102253,232.090319 94.5742788,232.090319 L78.0267686,232.090319 L78.0267686,218.075266 L94.5742788,218.075266 C96.5102253,218.075266 98.0814282,216.50558 98.0814282,214.571503 C98.0814282,212.637425 96.5102253,211.067739 94.5742788,211.067739 L78.0267686,211.067739 L78.0267686,197.052686 L94.5742788,197.052686 C96.5102253,197.052686 98.0814282,195.483 98.0814282,193.548923 C98.0814282,191.614846 96.5102253,190.04516 94.5742788,190.04516 L78.0267686,190.04516 L78.0267686,176.030106 L94.5742788,176.030106 C96.5102253,176.030106 98.0814282,174.46042 98.0814282,172.526343 C98.0814282,170.592266 96.5102253,169.02258 94.5742788,169.02258 L78.0267686,169.02258 L78.0267686,155.007527 L138.998171,155.007527 L138.998171,332.992473 L138.985701,332.992473 Z" id="Page-1"></path>
          <path d="M952,298 C954.209139,298 956,299.790861 956,302 C956,304.209139 954.209139,306 952,306 C949.790861,306 948,304.209139 948,302 C948,299.790861 949.790861,298 952,298 Z M1032,288 C1034.20914,288 1036,289.790861 1036,292 C1036,294.209139 1034.20914,296 1032,296 C1029.79086,296 1028,294.209139 1028,292 C1028,289.790861 1029.79086,288 1032,288 Z M882,228 C884.209139,228 886,229.790861 886,232 C886,234.209139 884.209139,236 882,236 C879.790861,236 878,234.209139 878,232 C878,229.790861 879.790861,228 882,228 Z M972,168 C974.209139,168 976,169.790861 976,172 C976,174.209139 974.209139,176 972,176 C969.790861,176 968,174.209139 968,172 C968,169.790861 969.790861,168 972,168 Z M912,141 C913.104569,141 914,141.895431 914,143 C914,144.104569 913.104569,145 912,145 C910.895431,145 910,144.104569 910,143 C910,141.895431 910.895431,141 912,141 Z M822,141 C823.104569,141 824,141.895431 824,143 C824,144.104569 823.104569,145 822,145 C820.895431,145 820,144.104569 820,143 C820,141.895431 820.895431,141 822,141 Z M1022,110 C1023.10457,110 1024,110.895431 1024,112 C1024,113.104569 1023.10457,114 1022,114 C1020.89543,114 1020,113.104569 1020,112 C1020,110.895431 1020.89543,110 1022,110 Z M912,80 C913.104569,80 914,80.8954305 914,82 C914,83.1045695 913.104569,84 912,84 C910.895431,84 910,83.1045695 910,82 C910,80.8954305 910.895431,80 912,80 Z M822,74 C823.104569,74 824,74.8954305 824,76 C824,77.1045695 823.104569,78 822,78 C820.895431,78 820,77.1045695 820,76 C820,74.8954305 820.895431,74 822,74 Z M1082,74 C1083.10457,74 1084,74.8954305 1084,76 C1084,77.1045695 1083.10457,78 1082,78 C1080.89543,78 1080,77.1045695 1080,76 C1080,74.8954305 1080.89543,74 1082,74 Z M952,0 C953.104569,0 954,0.8954305 954,2 C954,3.1045695 953.104569,4 952,4 C950.895431,4 950,3.1045695 950,2 C950,0.8954305 950.895431,0 952,0 Z" id="Oval-3"></path>
          <path d="M132,298 C134.209139,298 136,299.790861 136,302 C136,304.209139 134.209139,306 132,306 C129.790861,306 128,304.209139 128,302 C128,299.790861 129.790861,298 132,298 Z M212,288 C214.209139,288 216,289.790861 216,292 C216,294.209139 214.209139,296 212,296 C209.790861,296 208,294.209139 208,292 C208,289.790861 209.790861,288 212,288 Z M62,228 C64.209139,228 66,229.790861 66,232 C66,234.209139 64.209139,236 62,236 C59.790861,236 58,234.209139 58,232 C58,229.790861 59.790861,228 62,228 Z M152,168 C154.209139,168 156,169.790861 156,172 C156,174.209139 154.209139,176 152,176 C149.790861,176 148,174.209139 148,172 C148,169.790861 149.790861,168 152,168 Z M92,141 C93.1045695,141 94,141.895431 94,143 C94,144.104569 93.1045695,145 92,145 C90.8954305,145 90,144.104569 90,143 C90,141.895431 90.8954305,141 92,141 Z M2,141 C3.1045695,141 4,141.895431 4,143 C4,144.104569 3.1045695,145 2,145 C0.8954305,145 0,144.104569 0,143 C0,141.895431 0.8954305,141 2,141 Z M202,110 C203.104569,110 204,110.895431 204,112 C204,113.104569 203.104569,114 202,114 C200.895431,114 200,113.104569 200,112 C200,110.895431 200.895431,110 202,110 Z M92,80 C93.1045695,80 94,80.8954305 94,82 C94,83.1045695 93.1045695,84 92,84 C90.8954305,84 90,83.1045695 90,82 C90,80.8954305 90.8954305,80 92,80 Z M2,74 C3.1045695,74 4,74.8954305 4,76 C4,77.1045695 3.1045695,78 2,78 C0.8954305,78 0,77.1045695 0,76 C0,74.8954305 0.8954305,74 2,74 Z M262,74 C263.104569,74 264,74.8954305 264,76 C264,77.1045695 263.104569,78 262,78 C260.895431,78 260,77.1045695 260,76 C260,74.8954305 260.895431,74 262,74 Z M132,0 C133.104569,0 134,0.8954305 134,2 C134,3.1045695 133.104569,4 132,4 C130.895431,4 130,3.1045695 130,2 C130,0.8954305 130.895431,0 132,0 Z" id="Oval-3" transform="translate(132.000000, 153.000000) scale(-1, 1) translate(-132.000000, -153.000000) "></path>
          <path d="M402,368 C404.209139,368 406,369.790861 406,372 C406,374.209139 404.209139,376 402,376 C399.790861,376 398,374.209139 398,372 C398,369.790861 399.790861,368 402,368 Z M482,358 C484.209139,358 486,359.790861 486,362 C486,364.209139 484.209139,366 482,366 C479.790861,366 478,364.209139 478,362 C478,359.790861 479.790861,358 482,358 Z M332,298 C334.209139,298 336,299.790861 336,302 C336,304.209139 334.209139,306 332,306 C329.790861,306 328,304.209139 328,302 C328,299.790861 329.790861,298 332,298 Z M422,238 C424.209139,238 426,239.790861 426,242 C426,244.209139 424.209139,246 422,246 C419.790861,246 418,244.209139 418,242 C418,239.790861 419.790861,238 422,238 Z M362,211 C363.104569,211 364,211.895431 364,213 C364,214.104569 363.104569,215 362,215 C360.895431,215 360,214.104569 360,213 C360,211.895431 360.895431,211 362,211 Z M272,211 C273.104569,211 274,211.895431 274,213 C274,214.104569 273.104569,215 272,215 C270.895431,215 270,214.104569 270,213 C270,211.895431 270.895431,211 272,211 Z M472,180 C473.104569,180 474,180.895431 474,182 C474,183.104569 473.104569,184 472,184 C470.895431,184 470,183.104569 470,182 C470,180.895431 470.895431,180 472,180 Z M362,150 C363.104569,150 364,150.895431 364,152 C364,153.104569 363.104569,154 362,154 C360.895431,154 360,153.104569 360,152 C360,150.895431 360.895431,150 362,150 Z M272,144 C273.104569,144 274,144.895431 274,146 C274,147.104569 273.104569,148 272,148 C270.895431,148 270,147.104569 270,146 C270,144.895431 270.895431,144 272,144 Z M532,144 C533.104569,144 534,144.895431 534,146 C534,147.104569 533.104569,148 532,148 C530.895431,148 530,147.104569 530,146 C530,144.895431 530.895431,144 532,144 Z M402,70 C403.104569,70 404,70.8954305 404,72 C404,73.1045695 403.104569,74 402,74 C400.895431,74 400,73.1045695 400,72 C400,70.8954305 400.895431,70 402,70 Z" id="Oval-3" transform="translate(402.000000, 223.000000) scale(-1, -1) translate(-402.000000, -223.000000) "></path>
          <path d="M612,318 C614.209139,318 616,319.790861 616,322 C616,324.209139 614.209139,326 612,326 C609.790861,326 608,324.209139 608,322 C608,319.790861 609.790861,318 612,318 Z M692,308 C694.209139,308 696,309.790861 696,312 C696,314.209139 694.209139,316 692,316 C689.790861,316 688,314.209139 688,312 C688,309.790861 689.790861,308 692,308 Z M542,248 C544.209139,248 546,249.790861 546,252 C546,254.209139 544.209139,256 542,256 C539.790861,256 538,254.209139 538,252 C538,249.790861 539.790861,248 542,248 Z M632,188 C634.209139,188 636,189.790861 636,192 C636,194.209139 634.209139,196 632,196 C629.790861,196 628,194.209139 628,192 C628,189.790861 629.790861,188 632,188 Z M572,161 C573.104569,161 574,161.895431 574,163 C574,164.104569 573.104569,165 572,165 C570.895431,165 570,164.104569 570,163 C570,161.895431 570.895431,161 572,161 Z M482,161 C483.104569,161 484,161.895431 484,163 C484,164.104569 483.104569,165 482,165 C480.895431,165 480,164.104569 480,163 C480,161.895431 480.895431,161 482,161 Z M682,130 C683.104569,130 684,130.895431 684,132 C684,133.104569 683.104569,134 682,134 C680.895431,134 680,133.104569 680,132 C680,130.895431 680.895431,130 682,130 Z M572,100 C573.104569,100 574,100.895431 574,102 C574,103.104569 573.104569,104 572,104 C570.895431,104 570,103.104569 570,102 C570,100.895431 570.895431,100 572,100 Z M482,94 C483.104569,94 484,94.8954305 484,96 C484,97.1045695 483.104569,98 482,98 C480.895431,98 480,97.1045695 480,96 C480,94.8954305 480.895431,94 482,94 Z M742,94 C743.104569,94 744,94.8954305 744,96 C744,97.1045695 743.104569,98 742,98 C740.895431,98 740,97.1045695 740,96 C740,94.8954305 740.895431,94 742,94 Z M612,20 C613.104569,20 614,20.8954305 614,22 C614,23.1045695 613.104569,24 612,24 C610.895431,24 610,23.1045695 610,22 C610,20.8954305 610.895431,20 612,20 Z" id="Oval-3" transform="translate(612.000000, 173.000000) scale(-1, -1) translate(-612.000000, -173.000000) "></path>
          <path d="M161,265 L161,340 L204.420166,340 L204.420166,308.420166 L236,308.420166 L236,265 L161,265 Z M212.315125,340 L236,316.315125 L212.315125,316.315125 L212.315125,340 Z" id="Page-1"></path>
          <path d="M1169.09325,233.015 C1165.54625,232.965 1162.15925,234.297 1159.57325,237.117 L1159.42925,236.972 L1124.27225,271.687 C1115.90925,280.051 1115.90925,293.351 1124.27225,301.715 C1132.63625,310.078 1145.93625,310.078 1154.30025,301.715 L1177.00725,279.008 L1173.78025,275.636 L1172.02225,277.25 L1150.92925,298.344 C1144.29225,304.98 1134.27225,304.98 1127.63625,298.344 C1120.99925,291.707 1120.99925,281.687 1127.63625,275.051 L1162.79225,240.336 L1162.79225,240.191 C1166.03425,236.586 1172.14725,236.89 1175.97925,240.336 C1179.63925,243.633 1179.63625,249.57 1175.83525,253.371 L1140.67925,288.086 C1139.63225,289.133 1138.50325,289.133 1137.45225,288.086 C1136.40525,287.039 1136.40525,285.91 1137.45225,284.859 L1160.15925,262.152 L1156.93225,258.781 L1155.17525,260.394 L1134.08125,281.488 C1131.37825,284.191 1131.37825,288.746 1134.08125,291.449 C1136.78425,294.152 1141.33925,294.152 1144.04225,291.449 L1179.19825,256.734 C1184.77225,251.16 1184.76825,242.101 1179.05425,236.957 C1176.28025,234.457 1172.67925,233.058 1169.09325,233 L1169.09325,233.015 Z" id="Page-1"></path>
          <path d="M1212.88725,322.0076 C1211.0901,321.982267 1209.37402,322.657147 1208.06378,324.085947 L1207.99082,324.01248 L1190.17794,341.601413 C1185.94069,345.839173 1185.94069,352.57784 1190.17794,356.8156 C1194.4157,361.052853 1201.15437,361.052853 1205.39213,356.8156 L1216.89701,345.31072 L1215.26199,343.60224 L1214.37127,344.42 L1203.68415,355.107627 C1200.32141,358.469867 1195.24461,358.469867 1191.88237,355.107627 C1188.51962,351.74488 1188.51962,346.66808 1191.88237,343.30584 L1209.69474,325.716907 L1209.69474,325.64344 C1211.33735,323.816907 1214.43461,323.970933 1216.37615,325.716907 C1218.23055,327.387387 1218.22903,330.395467 1216.30319,332.321307 L1198.49082,349.91024 C1197.96034,350.44072 1197.38831,350.44072 1196.85581,349.91024 C1196.32533,349.37976 1196.32533,348.807733 1196.85581,348.275227 L1208.36069,336.770347 L1206.72567,335.062373 L1205.83546,335.879627 L1195.14783,346.567253 C1193.77831,347.936773 1193.77831,350.24464 1195.14783,351.61416 C1196.51735,352.98368 1198.82522,352.98368 1200.19474,351.61416 L1218.00711,334.025227 C1220.83127,331.201067 1220.82925,326.611173 1217.93415,324.00488 C1216.52866,322.738213 1214.70415,322.029387 1212.88725,322 L1212.88725,322.0076 Z" id="Page-1" transform="translate(1206.000000, 341.000000) scale(1, -1) translate(-1206.000000, -341.000000) "></path>
          <path d="M1143.65595,168.009 C1141.52775,167.979 1139.49555,168.7782 1137.94395,170.4702 L1137.85755,170.3832 L1116.76335,191.2122 C1111.74555,196.2306 1111.74555,204.2106 1116.76335,209.229 C1121.78175,214.2468 1129.76175,214.2468 1134.78015,209.229 L1148.40435,195.6048 L1146.46815,193.5816 L1145.41335,194.55 L1132.75755,207.2064 C1128.77535,211.188 1122.76335,211.188 1118.78175,207.2064 C1114.79955,203.2242 1114.79955,197.2122 1118.78175,193.2306 L1139.87535,172.4016 L1139.87535,172.3146 C1141.82055,170.1516 1145.48835,170.334 1147.78755,172.4016 C1149.98355,174.3798 1149.98175,177.942 1147.70115,180.2226 L1126.60755,201.0516 C1125.97935,201.6798 1125.30195,201.6798 1124.67135,201.0516 C1124.04315,200.4234 1124.04315,199.746 1124.67135,199.1154 L1138.29555,185.4912 L1136.35935,183.4686 L1135.30515,184.4364 L1122.64875,197.0928 C1121.02695,198.7146 1121.02695,201.4476 1122.64875,203.0694 C1124.27055,204.6912 1127.00355,204.6912 1128.62535,203.0694 L1149.71895,182.2404 C1153.06335,178.896 1153.06095,173.4606 1149.63255,170.3742 C1147.96815,168.8742 1145.80755,168.0348 1143.65595,168 L1143.65595,168.009 Z" id="Page-1" transform="translate(1135.500000, 190.500000) rotate(-315.000000) translate(-1135.500000, -190.500000) "></path>
          <path d="M1213.65595,118.009 C1211.52775,117.979 1209.49555,118.7782 1207.94395,120.4702 L1207.85755,120.3832 L1186.76335,141.2122 C1181.74555,146.2306 1181.74555,154.2106 1186.76335,159.229 C1191.78175,164.2468 1199.76175,164.2468 1204.78015,159.229 L1218.40435,145.6048 L1216.46815,143.5816 L1215.41335,144.55 L1202.75755,157.2064 C1198.77535,161.188 1192.76335,161.188 1188.78175,157.2064 C1184.79955,153.2242 1184.79955,147.2122 1188.78175,143.2306 L1209.87535,122.4016 L1209.87535,122.3146 C1211.82055,120.1516 1215.48835,120.334 1217.78755,122.4016 C1219.98355,124.3798 1219.98175,127.942 1217.70115,130.2226 L1196.60755,151.0516 C1195.97935,151.6798 1195.30195,151.6798 1194.67135,151.0516 C1194.04315,150.4234 1194.04315,149.746 1194.67135,149.1154 L1208.29555,135.4912 L1206.35935,133.4686 L1205.30515,134.4364 L1192.64875,147.0928 C1191.02695,148.7146 1191.02695,151.4476 1192.64875,153.0694 C1194.27055,154.6912 1197.00355,154.6912 1198.62535,153.0694 L1219.71895,132.2404 C1223.06335,128.896 1223.06095,123.4606 1219.63255,120.3742 C1217.96815,118.8742 1215.80755,118.0348 1213.65595,118 L1213.65595,118.009 Z" id="Page-1" transform="translate(1205.500000, 140.500000) scale(-1, 1) rotate(-75.000000) translate(-1205.500000, -140.500000) "></path>
        </g>
      </g>
    </g>
  </g>
</svg>