<svg width="21px" height="21px" viewBox="0 0 21 21" version="1.1" xmlns="http://www.w3.org/2000/svg" xmlns:xlink="http://www.w3.org/1999/xlink">
    <g id="Page-1" stroke="none" stroke-width="1" fill="none" fill-rule="evenodd">
        <g id="Landing-Page" transform="translate(-284.000000, -35.000000)" fill="#CCA61F">
            <g id="Top-Header" transform="translate(1.000000, 2.000000)">
                <g id="Search-Field" transform="translate(269.000000, 15.000000)">
                    <path d="M21.7682301,18 C26.0585051,18 29.5364601,21.4779551 29.5364601,25.7682301 C29.5364601,27.5008411 28.9692345,29.1009695 28.0103524,30.393046 C28.0746158,30.4417393 28.140468,30.4925775 28.2005102,30.5526198 L33.7742208,36.1263303 C34.1657068,36.5178164 34.1653392,37.1529084 33.7746516,37.543596 L33.543596,37.7746516 C33.1523478,38.1658998 32.5166051,38.1644955 32.1263303,37.7742208 L26.5526198,32.2005102 C26.4926864,32.1405768 26.441937,32.074934 26.4003659,32.0053328 C25.1068304,32.9671548 23.5040144,33.5364601 21.7682301,33.5364601 C17.4779551,33.5364601 14,30.0585051 14,25.7682301 C14,21.4779551 17.4779551,18 21.7682301,18 Z M21.7682301,19.553646 C18.3360101,19.553646 15.553646,22.3360101 15.553646,25.7682301 C15.553646,29.2004501 18.3360101,31.9828141 21.7682301,31.9828141 C25.2004501,31.9828141 27.9828141,29.2004501 27.9828141,25.7682301 C27.9828141,22.3360101 25.2004501,19.553646 21.7682301,19.553646 Z" id="Search-Icon"></path>
                </g>
            </g>
        </g>
    </g>
</svg>